<svg width="19" height="20" viewBox="0 0 19 20" fill="none" xmlns="http://www.w3.org/2000/svg">
<g clip-path="url(#clip0_5_32)">
<path d="M9.5 0.3125C4.41724 0.3125 0.296875 4.64973 0.296875 10C0.296875 15.3503 4.41724 19.6875 9.5 19.6875C14.5828 19.6875 18.7031 15.3503 18.7031 10C18.7031 4.64973 14.5828 0.3125 9.5 0.3125ZM13.8468 13.8575C13.7877 13.9305 12.3707 15.6439 9.77027 15.6439C6.6274 15.6439 4.40856 13.1728 4.40856 9.9577C4.40856 6.7818 6.70949 4.35609 9.74347 4.35609C12.2282 4.35609 13.5273 5.81371 13.5814 5.87578C13.648 5.95222 13.6887 6.04977 13.697 6.15313C13.7053 6.2565 13.6808 6.35985 13.6273 6.44699L12.7968 7.8007C12.6466 8.04551 12.3228 8.08785 12.1202 7.89035C12.1115 7.88199 11.1357 6.95754 9.82385 6.95754C8.11252 6.95754 7.08088 8.26906 7.08088 9.92949C7.08088 11.4764 8.02769 13.0425 9.83725 13.0425C11.2733 13.0425 12.2597 11.9355 12.2695 11.9243C12.46 11.7069 12.7913 11.7277 12.9564 11.9654L13.8673 13.2768C13.9264 13.362 13.9565 13.4656 13.9528 13.5709C13.9491 13.6763 13.9117 13.7773 13.8468 13.8575Z" fill="white"/>
</g>
<defs>
<clipPath id="clip0_5_32">
<rect width="19" height="20" fill="white"/>
</clipPath>
</defs>
</svg>
