<svg width="22" height="22" viewBox="0 0 22 22" fill="none" xmlns="http://www.w3.org/2000/svg">
<path d="M17.1875 0H4.8125C3.67383 0 2.75 0.923828 2.75 2.0625V19.9375C2.75 21.0762 3.67383 22 4.8125 22H17.1875C18.3262 22 19.25 21.0762 19.25 19.9375V2.0625C19.25 0.923828 18.3262 0 17.1875 0ZM11 5.5C12.5168 5.5 13.75 6.7332 13.75 8.25C13.75 9.7668 12.5168 11 11 11C9.4832 11 8.25 9.7668 8.25 8.25C8.25 6.7332 9.4832 5.5 11 5.5ZM15.8125 15.675C15.8125 16.1305 15.3828 16.5 14.85 16.5H7.15C6.61719 16.5 6.1875 16.1305 6.1875 15.675V14.85C6.1875 13.4836 7.48086 12.375 9.075 12.375H9.28984C9.81836 12.5941 10.3941 12.7188 11 12.7188C11.6059 12.7188 12.1859 12.5941 12.7102 12.375H12.925C14.5191 12.375 15.8125 13.4836 15.8125 14.85V15.675Z" fill="#1D2826"/>
</svg>
