<svg width="25" height="25" viewBox="0 0 25 25" fill="none" xmlns="http://www.w3.org/2000/svg">
<path d="M21.0938 1.5625H3.90625C2.6123 1.5625 1.5625 2.6123 1.5625 3.90625V21.0938C1.5625 22.3877 2.6123 23.4375 3.90625 23.4375H21.0938C22.3877 23.4375 23.4375 22.3877 23.4375 21.0938V3.90625C23.4375 2.6123 22.3877 1.5625 21.0938 1.5625ZM18.7061 9.31641C18.7158 9.45312 18.7158 9.59473 18.7158 9.73145C18.7158 13.9648 15.4932 18.8428 9.60449 18.8428C7.78809 18.8428 6.10352 18.3154 4.6875 17.4072C4.94629 17.4365 5.19531 17.4463 5.45898 17.4463C6.95801 17.4463 8.33496 16.9385 9.43359 16.0791C8.02734 16.0498 6.8457 15.127 6.44043 13.8574C6.93359 13.9307 7.37793 13.9307 7.88574 13.7988C6.4209 13.501 5.32227 12.2119 5.32227 10.6543V10.6152C5.74707 10.8545 6.24512 11.001 6.76758 11.0205C6.32833 10.7283 5.96825 10.332 5.71947 9.86677C5.47068 9.40158 5.34093 8.88203 5.3418 8.35449C5.3418 7.75879 5.49805 7.21191 5.77637 6.73828C7.35352 8.68164 9.72168 9.95117 12.3779 10.0879C11.9238 7.91504 13.5498 6.15234 15.5029 6.15234C16.4258 6.15234 17.2559 6.53809 17.8418 7.16309C18.5645 7.02637 19.2578 6.75781 19.873 6.3916C19.6338 7.13379 19.1309 7.75879 18.4668 8.1543C19.1113 8.08594 19.7363 7.90527 20.3125 7.65625C19.8779 8.2959 19.3311 8.8623 18.7061 9.31641Z" fill="#C6C6C6"/>
</svg>
